<svg xmlns="http://www.w3.org/2000/svg" xmlns:xlink="http://www.w3.org/1999/xlink" width="500" zoomAndPan="magnify" viewBox="0 0 375 374.999991" height="500" preserveAspectRatio="xMidYMid meet" version="1.0"><defs><clipPath id="be6f90e3d2"><path d="M 108 126 L 374 126 L 374 373 L 108 373 Z M 108 126 " clip-rule="nonzero"/></clipPath><clipPath id="ab50e60c8d"><path d="M 62.101562 309.632812 L 318.246094 84.710938 L 374.039062 148.25 L 117.894531 373.171875 Z M 62.101562 309.632812 " clip-rule="nonzero"/></clipPath><clipPath id="5423a3df90"><path d="M 111.003906 266.691406 L 269.316406 127.675781 C 270.734375 126.429688 272.660156 125.925781 274.507812 126.3125 L 372.070312 146.785156 C 372.625 146.902344 373.070312 147.324219 373.214844 147.871094 C 373.359375 148.421875 373.179688 149.007812 372.753906 149.382812 L 119.15625 372.066406 C 118.730469 372.441406 118.128906 372.542969 117.601562 372.328125 C 117.074219 372.113281 116.714844 371.621094 116.671875 371.054688 L 108.980469 271.660156 C 108.835938 269.777344 109.585938 267.9375 111.003906 266.691406 Z M 111.003906 266.691406 " clip-rule="nonzero"/></clipPath><clipPath id="ad90e57f56"><path d="M 41 21 L 164 21 L 164 226 L 41 226 Z M 41 21 " clip-rule="nonzero"/></clipPath><clipPath id="275b5413de"><path d="M 41.671875 20.851562 L 204.410156 61.5625 L 163.378906 225.582031 L 0.640625 184.867188 Z M 41.671875 20.851562 " clip-rule="nonzero"/></clipPath><clipPath id="83bfddf60d"><path d="M 140.632812 45.605469 L 43.941406 21.417969 C 43.28125 21.253906 42.582031 21.421875 42.066406 21.871094 C 41.554688 22.320312 41.296875 22.992188 41.371094 23.671875 L 61.167969 197.113281 C 61.371094 198.90625 62.667969 200.386719 64.417969 200.824219 L 161.109375 225.011719 C 161.769531 225.179688 162.46875 225.007812 162.984375 224.558594 C 163.496094 224.109375 163.753906 223.4375 163.679688 222.761719 L 143.882812 49.316406 C 143.679688 47.523438 142.382812 46.042969 140.632812 45.605469 Z M 140.632812 45.605469 " clip-rule="nonzero"/></clipPath><clipPath id="5a187de86b"><path d="M 42 19 L 229 19 L 229 168 L 42 168 Z M 42 19 " clip-rule="nonzero"/></clipPath><clipPath id="226d79926f"><path d="M 209.949219 0.65625 L 228.945312 167.328125 L 60.957031 186.472656 L 41.964844 19.800781 Z M 209.949219 0.65625 " clip-rule="nonzero"/></clipPath><clipPath id="2c6640eb3d"><path d="M 217.394531 65.976562 L 228.679688 165.003906 C 228.757812 165.683594 228.496094 166.355469 227.984375 166.804688 C 227.472656 167.253906 226.769531 167.421875 226.109375 167.257812 L 56.765625 124.863281 C 55.015625 124.425781 53.71875 122.949219 53.515625 121.15625 L 42.230469 22.125 C 42.152344 21.449219 42.410156 20.773438 42.925781 20.324219 C 43.4375 19.875 44.136719 19.707031 44.800781 19.871094 L 214.144531 62.265625 C 215.894531 62.703125 217.1875 64.183594 217.394531 65.976562 Z M 217.394531 65.976562 " clip-rule="nonzero"/></clipPath></defs><g clip-path="url(#be6f90e3d2)"><g clip-path="url(#ab50e60c8d)"><g clip-path="url(#5423a3df90)"><path fill="#3b82f6" d="M 61.109375 310.503906 L 319.238281 83.839844 L 375.03125 147.378906 L 116.902344 374.042969 Z M 61.109375 310.503906 " fill-opacity="1" fill-rule="nonzero"/></g></g></g><g clip-path="url(#ad90e57f56)"><g clip-path="url(#275b5413de)"><g clip-path="url(#83bfddf60d)"><path fill="#e1dddd" d="M 41.03125 20.691406 L 205.050781 61.722656 L 164.019531 225.742188 L 0 184.707031 Z M 41.03125 20.691406 " fill-opacity="1" fill-rule="nonzero"/></g></g></g><g clip-path="url(#5a187de86b)"><g clip-path="url(#226d79926f)"><g clip-path="url(#2c6640eb3d)"><path fill="#e1dddd" d="M 209.875 0 L 229.019531 167.984375 L 61.035156 187.128906 L 41.890625 19.144531 Z M 209.875 0 " fill-opacity="1" fill-rule="nonzero"/></g></g></g></svg>